<?xml version="1.0" encoding="UTF-8" standalone="no"?>
<svg
   xmlns:dc="http://purl.org/dc/elements/1.1/"
   xmlns:cc="http://creativecommons.org/ns#"
   xmlns:rdf="http://www.w3.org/1999/02/22-rdf-syntax-ns#"
   xmlns:svg="http://www.w3.org/2000/svg"
   xmlns="http://www.w3.org/2000/svg"
   xmlns:sodipodi="http://sodipodi.sourceforge.net/DTD/sodipodi-0.dtd"
   xmlns:inkscape="http://www.inkscape.org/namespaces/inkscape"
   version="1.1"
   width="158.80157"
   height="187.16859"
   id="svg1481"
   sodipodi:version="0.32"
   inkscape:version="1.0 (4035a4fb49, 2020-05-01)"
   sodipodi:docname="logo.svg">
  <metadata
     id="metadata1512">
    <rdf:RDF>
      <cc:Work
         rdf:about="">
        <dc:format>image/svg+xml</dc:format>
        <dc:type
           rdf:resource="http://purl.org/dc/dcmitype/StillImage" />
        <dc:title></dc:title>
      </cc:Work>
    </rdf:RDF>
  </metadata>
  <sodipodi:namedview
     inkscape:window-maximized="1"
     fit-margin-bottom="0"
     fit-margin-right="0"
     fit-margin-left="0"
     fit-margin-top="0"
     showgrid="false"
     inkscape:document-rotation="0"
     id="base"
     pagecolor="#ffffff"
     bordercolor="#666666"
     borderopacity="1.0"
     inkscape:pageopacity="0.0"
     inkscape:pageshadow="2"
     inkscape:window-width="1600"
     inkscape:window-height="857"
     inkscape:zoom="1.5523689"
     inkscape:cx="272.97612"
     inkscape:cy="116.59601"
     inkscape:window-x="0"
     inkscape:window-y="24"
     inkscape:current-layer="svg1481" />
  <defs
     id="defs1483">
    <marker
       id="ArrowEnd"
       viewBox="0 0 10 10"
       refX="0"
       refY="5"
       markerUnits="strokeWidth"
       markerWidth="4"
       markerHeight="3"
       orient="auto">
      <path
         d="M 0,0 10,5 0,10 Z"
         id="path1486" />
    </marker>
    <marker
       id="ArrowStart"
       viewBox="0 0 10 10"
       refX="10"
       refY="5"
       markerUnits="strokeWidth"
       markerWidth="4"
       markerHeight="3"
       orient="auto">
      <path
         d="M 10,0 0,5 10,10 Z"
         id="path1489" />
    </marker>
  </defs>
  <path
     id="path1493"
     d="m 157.172,167.27901 v -0.71 h -1.395 l -1.163,0.914 v -0.508 h -1.394 v -3.862 h -1.161 v -3.556 h -0.698 v -0.711 h -1.163 v 4.471 h -1.625 v 3.455 h -1.744 v -1.069 l -0.928,0.408 -1.278,0.559 h -0.93 v 1.625 h -1.859 v -1.318 -2.035 -2.44 h -1.394 v -1.016 h -1.396 v -4.574 h -1.393 v 4.574 l -0.697,0.305 v 5.336 h -1.277 l -1.278,0.561 h -1.396 l -1.162,-0.508 h -2.091 v -1.221 h -1.396 v 1.932 h -1.16 v 1.32 h -0.933 v 0.863 h -2.087 l 0.004,0.002 v -0.56 h -0.934 v -7.317 h -0.928 v -4.98 l -0.582,-0.254 v -3.303 h -1.046 v 7.826 h -0.931 v 7.928 h -0.926 v 0.66 h -1.159 v -0.66 h -0.934 v -4.168 h -0.697 v -4.879 h -0.697 v -15.443 h -0.465 v -7.213 h -1.162 v 9.852 h -0.929 v 20.021 l -0.698,0.307 v 1.523 h -0.927 v -1.424 h -0.466 v -2.64 h -1.162 v -1.627 h -0.931 v 3.049 h -0.695 v 0.812 h -0.93 v -1.523 h -1.161 v 1.726 h -1.627 v 1.727 h -1.394 v -4.674 l -0.583,-0.254 v -5.029 h -1.74 v 4.166 l -1.163804,0.508 v 5.843 h -0.6939 v -17.531 -8.232 h -0.699 v -10.055 h -0.6967 v 8.531 h -0.9309 v 17.783 h -0.6958 v 0.916 h -0.6968 v 4.674 2.643 h -0.9309 v -2.541 h -1.1609 v -3.862 -7.925 h -1.3948 v -10.467 l -0.5808,-0.254 v 6.654 h -1.7429 v 4.166 7.725 h -0.698 v 2.236 l -0.929,0.407 v 3.962 1.17 h -1.1579 v -5.64 h -0.7 v -10.063 -5.181 h -0.698 v 12.195 h -1.1599 v 6.504 l -0.6958,0.306 v -1.322 h -1.6279 v 0.813 h -0.93 v 1.828 h -0.6967 v -1.93 h -0.9309 v -1.728 h -1.1609 v 0.916 l -0.3509,-0.155 v 1.475 l -0.9868,0.432 v 1.093 l -1.1308,0.494 v -1.714 h -1.4829 v -1.219 h -0.699 v -1.627 h -1.3928 v -1.627 h -0.698 v -2.641 h -1.1609 v -5.894 h -1.1619 v 7.722 h -1.1619 v 2.44 l -0.9289,0.406 v 3.049 h -0.6968 v 1.068 h -0.9267 v -6.047 l -0.7,-0.306 v -6.197 h -1.1619 v -6.608 h -0.6989 v -17.041 h -1.1609 v 14.195 h -0.699 v 10.774 h -0.929 v 0.812 h -0.9289 v 4.473 h -1.3938 v 5.385 0.56 h -1.1599 v -0.965 h -1.1648 v -0.814 h -1.1609 v -2.033 h -1.626 v -10.061 h -1.1628 v -12.601 h -1.3938 v 10.67 h -0.93 v -1.828 h -1.1608 v -9.249 l -0.5828,-0.253 v -5.915 h -1.044 v 8.202 h -1.1618 v 9.347 h -0.93 v 6.608 h -0.9289 v 5.894 h -0.4658 v -2.338 h -1.3948 v 3.049 h -1.627 v -1.83 h -1.1608 v 3.457 h -1.3938 v -2.338 h -1.3938 v 0.914 h -1.1619 v 1.424 h -1.1619 v 0.66 h -1.3918 v -1.779 h -1.6299 v 1.779 h -2.0879 v -0.763 h -1.1648 v 0.763 h -2.0879 v -0.865 h -0.9338 v -1.32 h -1.1609 v -1.932 h -1.3948 v 1.221"
     style="fill:none;stroke:#33ff00;stroke-width:1.50117;stroke-linecap:round;stroke-linejoin:round" />
  <path
     id="path1505"
     d="m 20.673696,186.08401 v -49.072"
     style="fill:none;stroke:#000000;stroke-width:1.50117;stroke-linecap:round;stroke-linejoin:round" />
  <path
     id="path1507"
     d="M 20.673696,85.728605 V 0.75058502 H 158.051 V 186.41801"
     style="fill:none;stroke:#000000;stroke-width:1.50117;stroke-linecap:round;stroke-linejoin:round" />
  <path
     id="path1509"
     d="m 158.448,6.289585 c -2.432,3.644 -8.539,3.66399 -8.539,3.66399 l 1.578,-3.961 c -8.027,2.00601 -16.209,10.49203 -16.209,10.49203 l -0.016,-4.975 -10.81,8.215 2.184,-6.099 -4.315,2.888 c -5.246,3.11 -11.197,4.364 -11.197,4.364 -9.006,0.558 -21.875604,11.419 -21.875604,11.419 1.564,-4.029 0.439,-12.332 0.439,-12.332 -7.9248,15.512 -23.023,22.491 -25.1858,23.372 -2.168,0.878 -13.5469,6.085 -23.8848,15.535 -10.3308,9.441 -13.6138,25.228 -13.6138,25.228 -0.8269,2.963 -8.5219,7.936 -12.0669,12.58 -1.6218,2.121 -10.7237903,13.487405 -13.9017703,27.389405 -2.69092,11.802 0.71899,23.189 0.71899,23.189 0,0 0.59791,4.312 3.86988,-3.389 l 1.36181,-0.273 c 0,0 -1.66381,3.598 -0.64086,3.246 1.02197,-0.348 6.8959503,-6.682 11.7067503,-12.035 4.814,-5.359 21.21,-18.529 35.9778,-19.484 0,0 10.0229,-3.783 17.448,2.025 0,0 4.896,6.059 12.4629,5.305 0,0 0.8879,-0.248 3.3068,1.393 l -0.1418,-3.161 c 0,0 8.6899,5.1 17.810404,1.495 l -1.6,-2.266 c 0,0 1.639,-2.414 6.472,0.859 l 0.286,-2.154 c 0,0 8.588,4.576 12.999,4.428 l -1.21,-3.883 c 0,0 9.095,-1.276 18.105,-1.832 0,0 11.222,-2.42 18.628,5.762 L 158.447,6.289585"
     style="fill:#000000;stroke:none" />
</svg>
